<?xml version="1.0" encoding="UTF-8"?>
<svg width="16px" height="16px" viewBox="0 0 16 16" version="1.1" xmlns="http://www.w3.org/2000/svg" xmlns:xlink="http://www.w3.org/1999/xlink">
    <!-- Generator: Sketch 57.1 (83088) - https://sketch.com -->
    
    
    <g id="Symbols" stroke="none" stroke-width="1" fill="none" fill-rule="evenodd">
        <g id="Icons/Close">
            <rect id="BG" fill-opacity="0" fill="#FFFFFF" x="0" y="0" width="4.5" height="4.5" rx="2.25"></rect>
            <path d="M0.46862915,0.46862915 C1.09346802,-0.156209717 2.10653198,-0.156209717 2.73137085,0.46862915 L2.73137085,0.46862915 L8,5.737 L13.2686292,0.46862915 C13.8567128,-0.119454489 14.7886913,-0.154047644 15.4172332,0.364849684 L15.5313708,0.46862915 C16.1562097,1.09346802 16.1562097,2.10653198 15.5313708,2.73137085 L15.5313708,2.73137085 L10.263,8 L15.5313708,13.2686292 C16.1194545,13.8567128 16.1540476,14.7886913 15.6351503,15.4172332 L15.5313708,15.5313708 C14.906532,16.1562097 13.893468,16.1562097 13.2686292,15.5313708 L13.2686292,15.5313708 L8,10.263 L2.73137085,15.5313708 C2.14328721,16.1194545 1.21130867,16.1540476 0.582766811,15.6351503 L0.46862915,15.5313708 C-0.156209717,14.906532 -0.156209717,13.893468 0.46862915,13.2686292 L0.46862915,13.2686292 L5.737,8 L0.46862915,2.73137085 C-0.119454489,2.14328721 -0.154047644,1.21130867 0.364849684,0.582766811 Z" id="Combined-Shape" fill="#000000"></path>
        </g>
    </g>
</svg>