<svg xmlns="http://www.w3.org/2000/svg" width="19" height="19" viewBox="0 0 19 19">
    <g fill="#FFF" fill-rule="nonzero">
        <path d="M9.5 19C4.262 19 0 14.738 0 9.5 0 4.26 4.262 0 9.5 0S19 4.261 19 9.5c0 5.238-4.262 9.5-9.5 9.5zm0-17.915c-4.64 0-8.415 3.775-8.415 8.415 0 4.64 3.775 8.414 8.415 8.414 4.64 0 8.414-3.775 8.414-8.414 0-4.64-3.774-8.415-8.414-8.415z"/>
        <path d="M12.988 9.9H5.913c-.283 0-.513-.2-.513-.45 0-.248.23-.45.513-.45h7.075c.283 0 .512.202.512.45 0 .25-.229.45-.512.45z"/>
        <path d="M9.45 13.5c-.248 0-.45-.23-.45-.512V5.913c0-.283.202-.513.45-.513.249 0 .45.23.45.513v7.075c0 .283-.2.512-.45.512z"/>
    </g>
</svg>
