<svg xmlns="http://www.w3.org/2000/svg" viewBox="0 0 27 28">
    <g fill="#363636" fill-rule="nonzero">
        <path d="M5.571 14h8.858c.315 0 .571-.224.571-.5s-.256-.5-.571-.5H5.57c-.315 0-.571.224-.571.5s.256.5.571.5zM11.468 16H6.532c-.294 0-.532.224-.532.5s.238.5.532.5h4.936c.294 0 .532-.224.532-.5s-.238-.5-.532-.5z"/>
        <path stroke="#363636" stroke-width=".5" d="M20.995 14.934V5.376c0-1.528-1.25-2.766-2.792-2.766h-2.29V1.553A.556.556 0 0 0 15.354 1a.556.556 0 0 0-.558.553V2.61H7.2V1.553A.556.556 0 0 0 6.64 1a.556.556 0 0 0-.558.553V2.61h-2.29C2.25 2.61 1 3.848 1 5.376V20.36c0 1.528 1.25 2.766 2.793 2.766H14.13c1.075 2.726 3.957 4.309 6.86 3.767 2.905-.54 5.008-3.053 5.009-5.98.005-2.97-2.156-5.448-5.005-5.98zM3.798 3.716h2.29v1.057c0 .305.25.553.559.553a.556.556 0 0 0 .558-.553V3.716h7.596v1.057c0 .305.25.553.559.553a.556.556 0 0 0 .559-.553V3.716h2.29a1.673 1.673 0 0 1 1.675 1.66v1.338H2.123V5.376c0-.917.75-1.66 1.675-1.66zm0 18.305a1.672 1.672 0 0 1-1.675-1.66V7.815h17.755v7.015h-.016a6.176 6.176 0 0 0-4.72 2.195 6.052 6.052 0 0 0-1.324 4.996H3.798zm16.064 3.872c-2.777 0-5.027-2.229-5.027-4.979s2.25-4.978 5.027-4.978c2.776 0 5.026 2.229 5.026 4.978-.004 2.748-2.252 4.975-5.026 4.98z"/>
        <path stroke="#363636" stroke-width=".5" d="M22.042 19.167l-3.35 3.4-1.732-1.847a.539.539 0 0 0-.795 0 .624.624 0 0 0 0 .846l2.126 2.26a.538.538 0 0 0 .79.006l3.745-3.808a.619.619 0 0 0 .017-.845.55.55 0 0 0-.8-.012z"/>
    </g>
</svg>
