<svg xmlns="http://www.w3.org/2000/svg"  viewBox="0 0 20 20">
    <path fill="#363636" fill-rule="nonzero" d="M17.656 1.563h-.937V0h-1.563v1.563H4.844V0H3.28v1.563h-.937A2.346 2.346 0 0 0 0 3.905v13.75A2.346 2.346 0 0 0 2.344 20h15.312A2.346 2.346 0 0 0 20 17.656V3.906a2.346 2.346 0 0 0-2.344-2.344zM2.344 3.125h.937v1.563h1.563V3.125h10.312v1.563h1.563V3.125h.937c.431 0 .782.35.782.781v1.875H1.563V3.906c0-.43.35-.781.78-.781zm15.312 15.313H2.344a.782.782 0 0 1-.781-.782V7.344h16.875v10.312c0 .431-.351.782-.782.782zm-5.312-1.641h4.687v-4.688h-4.687v4.688zm1.562-3.125h1.563v1.562h-1.563v-1.562z"/>
</svg>
