<svg xmlns="http://www.w3.org/2000/svg"  viewBox="0 0 23 22">
    <g fill="#363636" fill-rule="nonzero">
        <path d="M21.07 9.14a.93.93 0 0 0-.929.93v.935a9.081 9.081 0 0 1-2.68 6.463A9.081 9.081 0 0 1 11 20.14h-.006c-5.04-.003-9.14-4.106-9.136-9.146a9.081 9.081 0 0 1 2.68-6.463A9.081 9.081 0 0 1 11 1.86h.006c1.289 0 2.539.267 3.716.791a.93.93 0 1 0 .756-1.698A10.93 10.93 0 0 0 11.007 0H11a10.929 10.929 0 0 0-7.774 3.217A10.928 10.928 0 0 0 0 10.994a10.928 10.928 0 0 0 3.217 7.78A10.928 10.928 0 0 0 10.994 22H11c2.936 0 5.697-1.143 7.774-3.217A10.928 10.928 0 0 0 22 11.006v-.937a.93.93 0 0 0-.93-.93z"/>
        <path d="M22.727 1.274a.93.93 0 0 0-1.318 0L10.961 11.745 8.591 9.37a.93.93 0 0 0-1.318 0 .935.935 0 0 0 0 1.32l3.03 3.036a.928.928 0 0 0 1.317 0L22.727 2.594a.935.935 0 0 0 0-1.32z"/>
    </g>
</svg>
