<svg xmlns="http://www.w3.org/2000/svg"  viewBox="0 0 20 22">
    <g fill-rule="nonzero">
        <path d="M14.083 7.356l-1.677-.064-.364 10.282 1.677.063zM9.161 7.324h1.678v10.282H9.161zM7.958 17.573L7.594 7.292l-1.677.064.364 10.281z"/>
        <path d="M.016 3.038v1.737h1.748L3.151 21.1a.85.85 0 0 0 .836.793h11.998a.85.85 0 0 0 .835-.793l1.387-16.324h1.777V3.038H.016zm15.2 17.116H4.756L3.448 4.775h13.074l-1.307 15.38z"/>
        <path d="M12.649 0H7.35C6.606 0 6 .619 6 1.38V4h1.622V1.655h4.756V4H14V1.38C14 .618 13.394 0 12.649 0z"/>
    </g>
</svg>
