<svg xmlns="http://www.w3.org/2000/svg" viewBox="0 0 23 20">
    <g fill="#363636" fill-rule="nonzero" stroke="#363636" stroke-width=".5">
        <path d="M21.777 8.412l-9.955-7.306a.544.544 0 0 0-.644 0L1.223 8.412a.548.548 0 0 0-.118.764c.178.244.52.297.763.118l9.632-7.07 9.632 7.07a.542.542 0 0 0 .763-.118.548.548 0 0 0-.118-.764z"/>
        <path d="M18.92 9.4c-.31 0-.56.239-.56.533v8.481h-4.48v-4.63c0-1.469-1.256-2.664-2.8-2.664-1.544 0-2.8 1.195-2.8 2.665v4.63H3.8V9.932a.547.547 0 0 0-.56-.533c-.31 0-.56.239-.56.533v9.014c0 .294.25.533.56.533h5.6a.55.55 0 0 0 .56-.533v-5.162c0-.882.754-1.6 1.68-1.6.926 0 1.68.718 1.68 1.6v5.162l.002.041a.55.55 0 0 0 .558.492h5.6c.31 0 .56-.239.56-.533V9.933a.547.547 0 0 0-.56-.533z"/>
    </g>
</svg>
