<svg xmlns="http://www.w3.org/2000/svg"  viewBox="0 0 16 12">
    <g fill="#363636" fill-rule="nonzero">
        <path d="M15.221 12H4.78C4.35 12 4 11.552 4 11s.349-1 .78-1h10.44c.431 0 .78.448.78 1s-.349 1-.779 1zM15.221 7H4.78C4.35 7 4 6.552 4 6s.349-1 .78-1h10.44c.431 0 .78.448.78 1s-.349 1-.779 1zM15.221 2H4.78C4.35 2 4 1.552 4 1s.349-1 .78-1h10.44c.431 0 .78.448.78 1s-.349 1-.779 1z"/>
        <circle cx="1" cy="1" r="1"/>
        <circle cx="1" cy="6" r="1"/>
        <circle cx="1" cy="11" r="1"/>
    </g>
</svg>
